<mxfile host="app.diagrams.net" agent="Mozilla/5.0 (Windows NT 10.0; Win64; x64) AppleWebKit/537.36 (KHTML, like Gecko) Chrome/133.0.0.0 Safari/537.36" version="26.1.0">
  <diagram name="Trang-1" id="TEADo6_Qft5cRPyc7dZM">
    <mxGraphModel dx="3261" dy="1114" grid="1" gridSize="10" guides="1" tooltips="1" connect="1" arrows="1" fold="1" page="1" pageScale="1" pageWidth="827" pageHeight="1169" math="0" shadow="0">
      <root>
        <mxCell id="0" />
        <mxCell id="1" parent="0" />
        <mxCell id="GnyuzEe8Hdg3utKh5gc8-3" value="TaiKhoan" style="swimlane;fontStyle=0;childLayout=stackLayout;horizontal=1;startSize=30;horizontalStack=0;resizeParent=1;resizeParentMax=0;resizeLast=0;collapsible=1;marginBottom=0;whiteSpace=wrap;html=1;" parent="1" vertex="1">
          <mxGeometry x="150" y="210" width="260" height="180" as="geometry" />
        </mxCell>
        <mxCell id="GnyuzEe8Hdg3utKh5gc8-4" value="- maTk: String" style="text;strokeColor=none;fillColor=none;align=left;verticalAlign=middle;spacingLeft=4;spacingRight=4;overflow=hidden;points=[[0,0.5],[1,0.5]];portConstraint=eastwest;rotatable=0;whiteSpace=wrap;html=1;" parent="GnyuzEe8Hdg3utKh5gc8-3" vertex="1">
          <mxGeometry y="30" width="260" height="30" as="geometry" />
        </mxCell>
        <mxCell id="GnyuzEe8Hdg3utKh5gc8-6" value="- tenDn: String" style="text;strokeColor=none;fillColor=none;align=left;verticalAlign=middle;spacingLeft=4;spacingRight=4;overflow=hidden;points=[[0,0.5],[1,0.5]];portConstraint=eastwest;rotatable=0;whiteSpace=wrap;html=1;" parent="GnyuzEe8Hdg3utKh5gc8-3" vertex="1">
          <mxGeometry y="60" width="260" height="30" as="geometry" />
        </mxCell>
        <mxCell id="JC-z9ZiI9egvLf5v4hhp-21" value="- hoVaTen: String" style="text;strokeColor=none;fillColor=none;align=left;verticalAlign=middle;spacingLeft=4;spacingRight=4;overflow=hidden;points=[[0,0.5],[1,0.5]];portConstraint=eastwest;rotatable=0;whiteSpace=wrap;html=1;" parent="GnyuzEe8Hdg3utKh5gc8-3" vertex="1">
          <mxGeometry y="90" width="260" height="30" as="geometry" />
        </mxCell>
        <mxCell id="GnyuzEe8Hdg3utKh5gc8-8" value="- matKhau: String" style="text;strokeColor=none;fillColor=none;align=left;verticalAlign=middle;spacingLeft=4;spacingRight=4;overflow=hidden;points=[[0,0.5],[1,0.5]];portConstraint=eastwest;rotatable=0;whiteSpace=wrap;html=1;" parent="GnyuzEe8Hdg3utKh5gc8-3" vertex="1">
          <mxGeometry y="120" width="260" height="30" as="geometry" />
        </mxCell>
        <mxCell id="GnyuzEe8Hdg3utKh5gc8-11" value="- quyenTk: String" style="text;strokeColor=none;fillColor=none;align=left;verticalAlign=middle;spacingLeft=4;spacingRight=4;overflow=hidden;points=[[0,0.5],[1,0.5]];portConstraint=eastwest;rotatable=0;whiteSpace=wrap;html=1;" parent="GnyuzEe8Hdg3utKh5gc8-3" vertex="1">
          <mxGeometry y="150" width="260" height="30" as="geometry" />
        </mxCell>
        <mxCell id="GnyuzEe8Hdg3utKh5gc8-12" value="" style="swimlane;startSize=0;" parent="1" vertex="1">
          <mxGeometry x="150" y="390" width="260" height="180" as="geometry" />
        </mxCell>
        <mxCell id="GnyuzEe8Hdg3utKh5gc8-13" value="+ setRandomId(): void&amp;nbsp;" style="text;strokeColor=none;fillColor=none;align=left;verticalAlign=middle;spacingLeft=4;spacingRight=4;overflow=hidden;points=[[0,0.5],[1,0.5]];portConstraint=eastwest;rotatable=0;whiteSpace=wrap;html=1;" parent="GnyuzEe8Hdg3utKh5gc8-12" vertex="1">
          <mxGeometry width="140" height="30" as="geometry" />
        </mxCell>
        <mxCell id="_Qm1WaXk6jFMfFJq54K4-4" value="+ checkTenDangNhap(tenDn: String): boolean&amp;nbsp;" style="text;strokeColor=none;fillColor=none;align=left;verticalAlign=middle;spacingLeft=4;spacingRight=4;overflow=hidden;points=[[0,0.5],[1,0.5]];portConstraint=eastwest;rotatable=0;whiteSpace=wrap;html=1;" parent="GnyuzEe8Hdg3utKh5gc8-12" vertex="1">
          <mxGeometry y="30" width="260" height="30" as="geometry" />
        </mxCell>
        <mxCell id="_Qm1WaXk6jFMfFJq54K4-8" value="+ xuatHeaderTk(): void&amp;nbsp;" style="text;strokeColor=none;fillColor=none;align=left;verticalAlign=middle;spacingLeft=4;spacingRight=4;overflow=hidden;points=[[0,0.5],[1,0.5]];portConstraint=eastwest;rotatable=0;whiteSpace=wrap;html=1;fontStyle=4" parent="GnyuzEe8Hdg3utKh5gc8-12" vertex="1">
          <mxGeometry y="60" width="190" height="30" as="geometry" />
        </mxCell>
        <mxCell id="_Qm1WaXk6jFMfFJq54K4-5" value="+ nhap(): void" style="text;strokeColor=none;fillColor=none;align=left;verticalAlign=middle;spacingLeft=4;spacingRight=4;overflow=hidden;points=[[0,0.5],[1,0.5]];portConstraint=eastwest;rotatable=0;whiteSpace=wrap;html=1;fontStyle=2" parent="GnyuzEe8Hdg3utKh5gc8-12" vertex="1">
          <mxGeometry y="90" width="200" height="30" as="geometry" />
        </mxCell>
        <mxCell id="_Qm1WaXk6jFMfFJq54K4-6" value="+ nhapDeSua(): void" style="text;strokeColor=none;fillColor=none;align=left;verticalAlign=middle;spacingLeft=4;spacingRight=4;overflow=hidden;points=[[0,0.5],[1,0.5]];portConstraint=eastwest;rotatable=0;whiteSpace=wrap;html=1;fontStyle=2" parent="GnyuzEe8Hdg3utKh5gc8-12" vertex="1">
          <mxGeometry y="120" width="200" height="30" as="geometry" />
        </mxCell>
        <mxCell id="_Qm1WaXk6jFMfFJq54K4-7" value="+ xuatThongTinTk(): void" style="text;strokeColor=none;fillColor=none;align=left;verticalAlign=middle;spacingLeft=4;spacingRight=4;overflow=hidden;points=[[0,0.5],[1,0.5]];portConstraint=eastwest;rotatable=0;whiteSpace=wrap;html=1;fontStyle=2" parent="GnyuzEe8Hdg3utKh5gc8-12" vertex="1">
          <mxGeometry y="150" width="200" height="30" as="geometry" />
        </mxCell>
        <mxCell id="JC-z9ZiI9egvLf5v4hhp-1" value="KhachHang" style="swimlane;fontStyle=0;childLayout=stackLayout;horizontal=1;startSize=30;horizontalStack=0;resizeParent=1;resizeParentMax=0;resizeLast=0;collapsible=1;marginBottom=0;whiteSpace=wrap;html=1;" parent="1" vertex="1">
          <mxGeometry x="480" y="40" width="180" height="120" as="geometry" />
        </mxCell>
        <mxCell id="JC-z9ZiI9egvLf5v4hhp-2" value="- soDienThoai: String" style="text;strokeColor=none;fillColor=none;align=left;verticalAlign=middle;spacingLeft=4;spacingRight=4;overflow=hidden;points=[[0,0.5],[1,0.5]];portConstraint=eastwest;rotatable=0;whiteSpace=wrap;html=1;" parent="JC-z9ZiI9egvLf5v4hhp-1" vertex="1">
          <mxGeometry y="30" width="180" height="30" as="geometry" />
        </mxCell>
        <mxCell id="_Qm1WaXk6jFMfFJq54K4-9" value="- email: String" style="text;strokeColor=none;fillColor=none;align=left;verticalAlign=middle;spacingLeft=4;spacingRight=4;overflow=hidden;points=[[0,0.5],[1,0.5]];portConstraint=eastwest;rotatable=0;whiteSpace=wrap;html=1;" parent="JC-z9ZiI9egvLf5v4hhp-1" vertex="1">
          <mxGeometry y="60" width="180" height="30" as="geometry" />
        </mxCell>
        <mxCell id="_Qm1WaXk6jFMfFJq54K4-10" value="- diaChi: String" style="text;strokeColor=none;fillColor=none;align=left;verticalAlign=middle;spacingLeft=4;spacingRight=4;overflow=hidden;points=[[0,0.5],[1,0.5]];portConstraint=eastwest;rotatable=0;whiteSpace=wrap;html=1;" parent="JC-z9ZiI9egvLf5v4hhp-1" vertex="1">
          <mxGeometry y="90" width="180" height="30" as="geometry" />
        </mxCell>
        <mxCell id="JC-z9ZiI9egvLf5v4hhp-8" value="" style="swimlane;startSize=0;" parent="1" vertex="1">
          <mxGeometry x="480" y="160" width="180" height="120" as="geometry" />
        </mxCell>
        <mxCell id="_Qm1WaXk6jFMfFJq54K4-3" value="+ checkSoDienThoai: boolean" style="text;strokeColor=none;fillColor=none;align=left;verticalAlign=middle;spacingLeft=4;spacingRight=4;overflow=hidden;points=[[0,0.5],[1,0.5]];portConstraint=eastwest;rotatable=0;whiteSpace=wrap;html=1;" parent="JC-z9ZiI9egvLf5v4hhp-8" vertex="1">
          <mxGeometry width="180" height="30" as="geometry" />
        </mxCell>
        <mxCell id="JC-z9ZiI9egvLf5v4hhp-9" value="+ nhap(): void" style="text;strokeColor=none;fillColor=none;align=left;verticalAlign=middle;spacingLeft=4;spacingRight=4;overflow=hidden;points=[[0,0.5],[1,0.5]];portConstraint=eastwest;rotatable=0;whiteSpace=wrap;html=1;" parent="JC-z9ZiI9egvLf5v4hhp-8" vertex="1">
          <mxGeometry y="30" width="180" height="30" as="geometry" />
        </mxCell>
        <mxCell id="_Qm1WaXk6jFMfFJq54K4-2" value="+ nhapDeSua(): void" style="text;strokeColor=none;fillColor=none;align=left;verticalAlign=middle;spacingLeft=4;spacingRight=4;overflow=hidden;points=[[0,0.5],[1,0.5]];portConstraint=eastwest;rotatable=0;whiteSpace=wrap;html=1;" parent="JC-z9ZiI9egvLf5v4hhp-8" vertex="1">
          <mxGeometry y="60" width="180" height="30" as="geometry" />
        </mxCell>
        <mxCell id="_Qm1WaXk6jFMfFJq54K4-11" value="+ xuatThongTinTk(): void" style="text;strokeColor=none;fillColor=none;align=left;verticalAlign=middle;spacingLeft=4;spacingRight=4;overflow=hidden;points=[[0,0.5],[1,0.5]];portConstraint=eastwest;rotatable=0;whiteSpace=wrap;html=1;" parent="JC-z9ZiI9egvLf5v4hhp-8" vertex="1">
          <mxGeometry y="90" width="170" height="30" as="geometry" />
        </mxCell>
        <mxCell id="JC-z9ZiI9egvLf5v4hhp-11" value="QuanLy" style="swimlane;fontStyle=0;childLayout=stackLayout;horizontal=1;startSize=30;horizontalStack=0;resizeParent=1;resizeParentMax=0;resizeLast=0;collapsible=1;marginBottom=0;whiteSpace=wrap;html=1;" parent="1" vertex="1">
          <mxGeometry x="480" y="360" width="150" height="60" as="geometry" />
        </mxCell>
        <mxCell id="JC-z9ZiI9egvLf5v4hhp-18" value="" style="swimlane;startSize=0;" parent="1" vertex="1">
          <mxGeometry x="480" y="420" width="150" height="90" as="geometry" />
        </mxCell>
        <mxCell id="_Qm1WaXk6jFMfFJq54K4-21" value="+ nhap(): void" style="text;strokeColor=none;fillColor=none;align=left;verticalAlign=middle;spacingLeft=4;spacingRight=4;overflow=hidden;points=[[0,0.5],[1,0.5]];portConstraint=eastwest;rotatable=0;whiteSpace=wrap;html=1;" parent="JC-z9ZiI9egvLf5v4hhp-18" vertex="1">
          <mxGeometry width="150" height="30" as="geometry" />
        </mxCell>
        <mxCell id="_Qm1WaXk6jFMfFJq54K4-22" value="+ nhapDeSua(): void" style="text;strokeColor=none;fillColor=none;align=left;verticalAlign=middle;spacingLeft=4;spacingRight=4;overflow=hidden;points=[[0,0.5],[1,0.5]];portConstraint=eastwest;rotatable=0;whiteSpace=wrap;html=1;" parent="JC-z9ZiI9egvLf5v4hhp-18" vertex="1">
          <mxGeometry y="30" width="150" height="30" as="geometry" />
        </mxCell>
        <mxCell id="_Qm1WaXk6jFMfFJq54K4-23" value="+ xuatThongTinTk(): void" style="text;strokeColor=none;fillColor=none;align=left;verticalAlign=middle;spacingLeft=4;spacingRight=4;overflow=hidden;points=[[0,0.5],[1,0.5]];portConstraint=eastwest;rotatable=0;whiteSpace=wrap;html=1;" parent="JC-z9ZiI9egvLf5v4hhp-18" vertex="1">
          <mxGeometry y="60" width="150" height="30" as="geometry" />
        </mxCell>
        <mxCell id="TKUJA5-GRmoaZ2aUbngq-1" value="" style="endArrow=classic;html=1;rounded=0;exitX=0.005;exitY=0.053;exitDx=0;exitDy=0;exitPerimeter=0;entryX=0.997;entryY=0.109;entryDx=0;entryDy=0;entryPerimeter=0;" parent="1" source="JC-z9ZiI9egvLf5v4hhp-1" target="GnyuzEe8Hdg3utKh5gc8-3" edge="1">
          <mxGeometry width="50" height="50" relative="1" as="geometry">
            <mxPoint x="390" y="270" as="sourcePoint" />
            <mxPoint x="420" y="300" as="targetPoint" />
          </mxGeometry>
        </mxCell>
        <mxCell id="TKUJA5-GRmoaZ2aUbngq-2" value="" style="endArrow=classic;html=1;rounded=0;exitX=-0.016;exitY=0.084;exitDx=0;exitDy=0;exitPerimeter=0;entryX=0.997;entryY=0.101;entryDx=0;entryDy=0;entryPerimeter=0;" parent="1" source="JC-z9ZiI9egvLf5v4hhp-11" target="GnyuzEe8Hdg3utKh5gc8-3" edge="1">
          <mxGeometry width="50" height="50" relative="1" as="geometry">
            <mxPoint x="491" y="120" as="sourcePoint" />
            <mxPoint x="350" y="297" as="targetPoint" />
          </mxGeometry>
        </mxCell>
        <mxCell id="qhtXlrBzNRr6gG4w9JeX-1" value="SanPham" style="swimlane;fontStyle=0;childLayout=stackLayout;horizontal=1;startSize=30;horizontalStack=0;resizeParent=1;resizeParentMax=0;resizeLast=0;collapsible=1;marginBottom=0;whiteSpace=wrap;html=1;" parent="1" vertex="1">
          <mxGeometry x="250" y="800" width="400" height="300" as="geometry" />
        </mxCell>
        <mxCell id="qhtXlrBzNRr6gG4w9JeX-2" value="- maSp: String" style="text;strokeColor=none;fillColor=none;align=left;verticalAlign=middle;spacingLeft=4;spacingRight=4;overflow=hidden;points=[[0,0.5],[1,0.5]];portConstraint=eastwest;rotatable=0;whiteSpace=wrap;html=1;" parent="qhtXlrBzNRr6gG4w9JeX-1" vertex="1">
          <mxGeometry y="30" width="400" height="30" as="geometry" />
        </mxCell>
        <mxCell id="qhtXlrBzNRr6gG4w9JeX-3" value="- tenSp: String" style="text;strokeColor=none;fillColor=none;align=left;verticalAlign=middle;spacingLeft=4;spacingRight=4;overflow=hidden;points=[[0,0.5],[1,0.5]];portConstraint=eastwest;rotatable=0;whiteSpace=wrap;html=1;" parent="qhtXlrBzNRr6gG4w9JeX-1" vertex="1">
          <mxGeometry y="60" width="400" height="30" as="geometry" />
        </mxCell>
        <mxCell id="qhtXlrBzNRr6gG4w9JeX-4" value="- soLuong: String" style="text;strokeColor=none;fillColor=none;align=left;verticalAlign=middle;spacingLeft=4;spacingRight=4;overflow=hidden;points=[[0,0.5],[1,0.5]];portConstraint=eastwest;rotatable=0;whiteSpace=wrap;html=1;" parent="qhtXlrBzNRr6gG4w9JeX-1" vertex="1">
          <mxGeometry y="90" width="400" height="30" as="geometry" />
        </mxCell>
        <mxCell id="qhtXlrBzNRr6gG4w9JeX-5" value="- giaBanDau:&amp;nbsp; String" style="text;strokeColor=none;fillColor=none;align=left;verticalAlign=middle;spacingLeft=4;spacingRight=4;overflow=hidden;points=[[0,0.5],[1,0.5]];portConstraint=eastwest;rotatable=0;whiteSpace=wrap;html=1;" parent="qhtXlrBzNRr6gG4w9JeX-1" vertex="1">
          <mxGeometry y="120" width="400" height="30" as="geometry" />
        </mxCell>
        <mxCell id="qhtXlrBzNRr6gG4w9JeX-6" value="- moTa: String" style="text;strokeColor=none;fillColor=none;align=left;verticalAlign=middle;spacingLeft=4;spacingRight=4;overflow=hidden;points=[[0,0.5],[1,0.5]];portConstraint=eastwest;rotatable=0;whiteSpace=wrap;html=1;" parent="qhtXlrBzNRr6gG4w9JeX-1" vertex="1">
          <mxGeometry y="150" width="400" height="30" as="geometry" />
        </mxCell>
        <mxCell id="qhtXlrBzNRr6gG4w9JeX-38" value="- mauSac: String" style="text;strokeColor=none;fillColor=none;align=left;verticalAlign=middle;spacingLeft=4;spacingRight=4;overflow=hidden;points=[[0,0.5],[1,0.5]];portConstraint=eastwest;rotatable=0;whiteSpace=wrap;html=1;" parent="qhtXlrBzNRr6gG4w9JeX-1" vertex="1">
          <mxGeometry y="180" width="400" height="30" as="geometry" />
        </mxCell>
        <mxCell id="qhtXlrBzNRr6gG4w9JeX-39" value="- loaiSp: String" style="text;strokeColor=none;fillColor=none;align=left;verticalAlign=middle;spacingLeft=4;spacingRight=4;overflow=hidden;points=[[0,0.5],[1,0.5]];portConstraint=eastwest;rotatable=0;whiteSpace=wrap;html=1;" parent="qhtXlrBzNRr6gG4w9JeX-1" vertex="1">
          <mxGeometry y="210" width="400" height="30" as="geometry" />
        </mxCell>
        <mxCell id="qhtXlrBzNRr6gG4w9JeX-65" value="- khuyenMai: String" style="text;strokeColor=none;fillColor=none;align=left;verticalAlign=middle;spacingLeft=4;spacingRight=4;overflow=hidden;points=[[0,0.5],[1,0.5]];portConstraint=eastwest;rotatable=0;whiteSpace=wrap;html=1;" parent="qhtXlrBzNRr6gG4w9JeX-1" vertex="1">
          <mxGeometry y="240" width="400" height="30" as="geometry" />
        </mxCell>
        <mxCell id="FiOedKz0_msWSFjW14d2-1" value="- gia:&amp;nbsp; String" style="text;strokeColor=none;fillColor=none;align=left;verticalAlign=middle;spacingLeft=4;spacingRight=4;overflow=hidden;points=[[0,0.5],[1,0.5]];portConstraint=eastwest;rotatable=0;whiteSpace=wrap;html=1;" parent="qhtXlrBzNRr6gG4w9JeX-1" vertex="1">
          <mxGeometry y="270" width="400" height="30" as="geometry" />
        </mxCell>
        <mxCell id="qhtXlrBzNRr6gG4w9JeX-27" value="" style="endArrow=classic;html=1;rounded=0;entryX=0.997;entryY=0.109;entryDx=0;entryDy=0;entryPerimeter=0;exitX=0.001;exitY=0.063;exitDx=0;exitDy=0;exitPerimeter=0;" parent="1" source="qhtXlrBzNRr6gG4w9JeX-40" target="qhtXlrBzNRr6gG4w9JeX-1" edge="1">
          <mxGeometry width="50" height="50" relative="1" as="geometry">
            <mxPoint x="540" y="610" as="sourcePoint" />
            <mxPoint x="460" y="890" as="targetPoint" />
          </mxGeometry>
        </mxCell>
        <mxCell id="qhtXlrBzNRr6gG4w9JeX-28" value="" style="endArrow=classic;html=1;rounded=0;entryX=1.003;entryY=0.086;entryDx=0;entryDy=0;entryPerimeter=0;exitX=-0.002;exitY=0.073;exitDx=0;exitDy=0;exitPerimeter=0;" parent="1" source="qhtXlrBzNRr6gG4w9JeX-49" target="qhtXlrBzNRr6gG4w9JeX-1" edge="1">
          <mxGeometry width="50" height="50" relative="1" as="geometry">
            <mxPoint x="500" y="920" as="sourcePoint" />
            <mxPoint x="390" y="820" as="targetPoint" />
          </mxGeometry>
        </mxCell>
        <mxCell id="qhtXlrBzNRr6gG4w9JeX-37" value="" style="endArrow=classic;html=1;rounded=0;exitX=-0.001;exitY=0.069;exitDx=0;exitDy=0;exitPerimeter=0;entryX=1.002;entryY=0.094;entryDx=0;entryDy=0;entryPerimeter=0;" parent="1" source="qhtXlrBzNRr6gG4w9JeX-57" target="qhtXlrBzNRr6gG4w9JeX-1" edge="1">
          <mxGeometry width="50" height="50" relative="1" as="geometry">
            <mxPoint x="527.06" y="1218.5400000000002" as="sourcePoint" />
            <mxPoint x="390" y="820" as="targetPoint" />
          </mxGeometry>
        </mxCell>
        <mxCell id="qhtXlrBzNRr6gG4w9JeX-40" value="LapTop" style="swimlane;fontStyle=0;childLayout=stackLayout;horizontal=1;startSize=30;horizontalStack=0;resizeParent=1;resizeParentMax=0;resizeLast=0;collapsible=1;marginBottom=0;whiteSpace=wrap;html=1;" parent="1" vertex="1">
          <mxGeometry x="880" y="650" width="250" height="60" as="geometry" />
        </mxCell>
        <mxCell id="qhtXlrBzNRr6gG4w9JeX-48" value="- dungLuong: String" style="text;strokeColor=none;fillColor=none;align=left;verticalAlign=middle;spacingLeft=4;spacingRight=4;overflow=hidden;points=[[0,0.5],[1,0.5]];portConstraint=eastwest;rotatable=0;whiteSpace=wrap;html=1;" parent="qhtXlrBzNRr6gG4w9JeX-40" vertex="1">
          <mxGeometry y="30" width="250" height="30" as="geometry" />
        </mxCell>
        <mxCell id="qhtXlrBzNRr6gG4w9JeX-49" value="PhuKien" style="swimlane;fontStyle=0;childLayout=stackLayout;horizontal=1;startSize=30;horizontalStack=0;resizeParent=1;resizeParentMax=0;resizeLast=0;collapsible=1;marginBottom=0;whiteSpace=wrap;html=1;" parent="1" vertex="1">
          <mxGeometry x="880" y="870" width="240" height="60" as="geometry" />
        </mxCell>
        <mxCell id="qhtXlrBzNRr6gG4w9JeX-57" value="TaiNgheLoa" style="swimlane;fontStyle=0;childLayout=stackLayout;horizontal=1;startSize=30;horizontalStack=0;resizeParent=1;resizeParentMax=0;resizeLast=0;collapsible=1;marginBottom=0;whiteSpace=wrap;html=1;" parent="1" vertex="1">
          <mxGeometry x="880" y="1100" width="240" height="60" as="geometry" />
        </mxCell>
        <mxCell id="_Qm1WaXk6jFMfFJq54K4-25" value="" style="swimlane;startSize=0;" parent="1" vertex="1">
          <mxGeometry x="250" y="1100" width="400" height="390" as="geometry" />
        </mxCell>
        <mxCell id="_Qm1WaXk6jFMfFJq54K4-26" value="+ setRandomId(): void&amp;nbsp;" style="text;strokeColor=none;fillColor=none;align=left;verticalAlign=middle;spacingLeft=4;spacingRight=4;overflow=hidden;points=[[0,0.5],[1,0.5]];portConstraint=eastwest;rotatable=0;whiteSpace=wrap;html=1;" parent="_Qm1WaXk6jFMfFJq54K4-25" vertex="1">
          <mxGeometry width="140" height="30" as="geometry" />
        </mxCell>
        <mxCell id="_Qm1WaXk6jFMfFJq54K4-28" value="+ checkSoLuong(string: String): boolean" style="text;strokeColor=none;fillColor=none;align=left;verticalAlign=middle;spacingLeft=4;spacingRight=4;overflow=hidden;points=[[0,0.5],[1,0.5]];portConstraint=eastwest;rotatable=0;whiteSpace=wrap;html=1;" parent="_Qm1WaXk6jFMfFJq54K4-25" vertex="1">
          <mxGeometry y="30" width="240" height="30" as="geometry" />
        </mxCell>
        <mxCell id="_Qm1WaXk6jFMfFJq54K4-99" value="+ checkGia(string: String): boolean" style="text;strokeColor=none;fillColor=none;align=left;verticalAlign=middle;spacingLeft=4;spacingRight=4;overflow=hidden;points=[[0,0.5],[1,0.5]];portConstraint=eastwest;rotatable=0;whiteSpace=wrap;html=1;" parent="_Qm1WaXk6jFMfFJq54K4-25" vertex="1">
          <mxGeometry y="60" width="230" height="30" as="geometry" />
        </mxCell>
        <mxCell id="_Qm1WaXk6jFMfFJq54K4-101" value="+ checkGiaNoPrint(string: String): boolean" style="text;strokeColor=none;fillColor=none;align=left;verticalAlign=middle;spacingLeft=4;spacingRight=4;overflow=hidden;points=[[0,0.5],[1,0.5]];portConstraint=eastwest;rotatable=0;whiteSpace=wrap;html=1;" parent="_Qm1WaXk6jFMfFJq54K4-25" vertex="1">
          <mxGeometry y="90" width="250" height="30" as="geometry" />
        </mxCell>
        <mxCell id="_Qm1WaXk6jFMfFJq54K4-32" value="+ checkKm(string: String): boolean" style="text;strokeColor=none;fillColor=none;align=left;verticalAlign=middle;spacingLeft=4;spacingRight=4;overflow=hidden;points=[[0,0.5],[1,0.5]];portConstraint=eastwest;rotatable=0;whiteSpace=wrap;html=1;" parent="_Qm1WaXk6jFMfFJq54K4-25" vertex="1">
          <mxGeometry y="120" width="230" height="30" as="geometry" />
        </mxCell>
        <mxCell id="_Qm1WaXk6jFMfFJq54K4-33" value="+ xuatHeaderSp(): void" style="text;strokeColor=none;fillColor=none;align=left;verticalAlign=middle;spacingLeft=4;spacingRight=4;overflow=hidden;points=[[0,0.5],[1,0.5]];portConstraint=eastwest;rotatable=0;whiteSpace=wrap;html=1;fontStyle=4" parent="_Qm1WaXk6jFMfFJq54K4-25" vertex="1">
          <mxGeometry y="180" width="150" height="30" as="geometry" />
        </mxCell>
        <mxCell id="dD1Nw-LrX4-UFUcD86zw-1" value="+ xuatHeaderSpCoStt(): void" style="text;strokeColor=none;fillColor=none;align=left;verticalAlign=middle;spacingLeft=4;spacingRight=4;overflow=hidden;points=[[0,0.5],[1,0.5]];portConstraint=eastwest;rotatable=0;whiteSpace=wrap;html=1;fontStyle=4" parent="_Qm1WaXk6jFMfFJq54K4-25" vertex="1">
          <mxGeometry y="210" width="210" height="30" as="geometry" />
        </mxCell>
        <mxCell id="dD1Nw-LrX4-UFUcD86zw-2" value="+ checkDsSanPhamTrongGio(dsSanPham: SanPham[]): MuaHangAction" style="text;strokeColor=none;fillColor=none;align=left;verticalAlign=middle;spacingLeft=4;spacingRight=4;overflow=hidden;points=[[0,0.5],[1,0.5]];portConstraint=eastwest;rotatable=0;whiteSpace=wrap;html=1;fontStyle=4" parent="_Qm1WaXk6jFMfFJq54K4-25" vertex="1">
          <mxGeometry x="-1" y="240" width="401" height="30" as="geometry" />
        </mxCell>
        <mxCell id="_Qm1WaXk6jFMfFJq54K4-29" value="+ nhap(): void" style="text;strokeColor=none;fillColor=none;align=left;verticalAlign=middle;spacingLeft=4;spacingRight=4;overflow=hidden;points=[[0,0.5],[1,0.5]];portConstraint=eastwest;rotatable=0;whiteSpace=wrap;html=1;fontStyle=2" parent="_Qm1WaXk6jFMfFJq54K4-25" vertex="1">
          <mxGeometry y="270" width="120" height="30" as="geometry" />
        </mxCell>
        <mxCell id="_Qm1WaXk6jFMfFJq54K4-30" value="+ nhapDeSua(): void" style="text;strokeColor=none;fillColor=none;align=left;verticalAlign=middle;spacingLeft=4;spacingRight=4;overflow=hidden;points=[[0,0.5],[1,0.5]];portConstraint=eastwest;rotatable=0;whiteSpace=wrap;html=1;fontStyle=2" parent="_Qm1WaXk6jFMfFJq54K4-25" vertex="1">
          <mxGeometry y="300" width="140" height="30" as="geometry" />
        </mxCell>
        <mxCell id="_Qm1WaXk6jFMfFJq54K4-31" value="+ xuatThongTinSp(): void" style="text;strokeColor=none;fillColor=none;align=left;verticalAlign=middle;spacingLeft=4;spacingRight=4;overflow=hidden;points=[[0,0.5],[1,0.5]];portConstraint=eastwest;rotatable=0;whiteSpace=wrap;html=1;fontStyle=2" parent="_Qm1WaXk6jFMfFJq54K4-25" vertex="1">
          <mxGeometry y="330" width="150" height="30" as="geometry" />
        </mxCell>
        <mxCell id="dD1Nw-LrX4-UFUcD86zw-3" value="+ xuatThongTinSpCoStt(soTt: String): void" style="text;strokeColor=none;fillColor=none;align=left;verticalAlign=middle;spacingLeft=4;spacingRight=4;overflow=hidden;points=[[0,0.5],[1,0.5]];portConstraint=eastwest;rotatable=0;whiteSpace=wrap;html=1;fontStyle=2" parent="_Qm1WaXk6jFMfFJq54K4-25" vertex="1">
          <mxGeometry y="360" width="240" height="30" as="geometry" />
        </mxCell>
        <mxCell id="FiOedKz0_msWSFjW14d2-2" value="+ tinhGia(gia: String, khuyenMai:String): String" style="text;strokeColor=none;fillColor=none;align=left;verticalAlign=middle;spacingLeft=4;spacingRight=4;overflow=hidden;points=[[0,0.5],[1,0.5]];portConstraint=eastwest;rotatable=0;whiteSpace=wrap;html=1;" parent="_Qm1WaXk6jFMfFJq54K4-25" vertex="1">
          <mxGeometry x="1" y="150" width="349" height="30" as="geometry" />
        </mxCell>
        <mxCell id="_Qm1WaXk6jFMfFJq54K4-34" value="" style="swimlane;startSize=0;" parent="1" vertex="1">
          <mxGeometry x="880" y="710" width="250" height="120" as="geometry" />
        </mxCell>
        <mxCell id="_Qm1WaXk6jFMfFJq54K4-35" value="+ nhap(): void" style="text;strokeColor=none;fillColor=none;align=left;verticalAlign=middle;spacingLeft=4;spacingRight=4;overflow=hidden;points=[[0,0.5],[1,0.5]];portConstraint=eastwest;rotatable=0;whiteSpace=wrap;html=1;" parent="_Qm1WaXk6jFMfFJq54K4-34" vertex="1">
          <mxGeometry width="150" height="30" as="geometry" />
        </mxCell>
        <mxCell id="_Qm1WaXk6jFMfFJq54K4-36" value="+ nhapDeSua(): void" style="text;strokeColor=none;fillColor=none;align=left;verticalAlign=middle;spacingLeft=4;spacingRight=4;overflow=hidden;points=[[0,0.5],[1,0.5]];portConstraint=eastwest;rotatable=0;whiteSpace=wrap;html=1;" parent="_Qm1WaXk6jFMfFJq54K4-34" vertex="1">
          <mxGeometry y="30" width="150" height="30" as="geometry" />
        </mxCell>
        <mxCell id="_Qm1WaXk6jFMfFJq54K4-37" value="+ xuatThongTinSp(): void" style="text;strokeColor=none;fillColor=none;align=left;verticalAlign=middle;spacingLeft=4;spacingRight=4;overflow=hidden;points=[[0,0.5],[1,0.5]];portConstraint=eastwest;rotatable=0;whiteSpace=wrap;html=1;" parent="_Qm1WaXk6jFMfFJq54K4-34" vertex="1">
          <mxGeometry y="60" width="150" height="30" as="geometry" />
        </mxCell>
        <mxCell id="dD1Nw-LrX4-UFUcD86zw-4" value="+ xuatThongTinSpCoStt(String soTt): void" style="text;strokeColor=none;fillColor=none;align=left;verticalAlign=middle;spacingLeft=4;spacingRight=4;overflow=hidden;points=[[0,0.5],[1,0.5]];portConstraint=eastwest;rotatable=0;whiteSpace=wrap;html=1;" parent="_Qm1WaXk6jFMfFJq54K4-34" vertex="1">
          <mxGeometry y="90" width="250" height="30" as="geometry" />
        </mxCell>
        <mxCell id="_Qm1WaXk6jFMfFJq54K4-38" value="" style="swimlane;startSize=0;" parent="1" vertex="1">
          <mxGeometry x="880" y="930" width="240" height="120" as="geometry" />
        </mxCell>
        <mxCell id="_Qm1WaXk6jFMfFJq54K4-39" value="+ nhap(): void" style="text;strokeColor=none;fillColor=none;align=left;verticalAlign=middle;spacingLeft=4;spacingRight=4;overflow=hidden;points=[[0,0.5],[1,0.5]];portConstraint=eastwest;rotatable=0;whiteSpace=wrap;html=1;" parent="_Qm1WaXk6jFMfFJq54K4-38" vertex="1">
          <mxGeometry width="150" height="30" as="geometry" />
        </mxCell>
        <mxCell id="_Qm1WaXk6jFMfFJq54K4-40" value="+ nhapDeSua(): void" style="text;strokeColor=none;fillColor=none;align=left;verticalAlign=middle;spacingLeft=4;spacingRight=4;overflow=hidden;points=[[0,0.5],[1,0.5]];portConstraint=eastwest;rotatable=0;whiteSpace=wrap;html=1;" parent="_Qm1WaXk6jFMfFJq54K4-38" vertex="1">
          <mxGeometry y="30" width="150" height="30" as="geometry" />
        </mxCell>
        <mxCell id="_Qm1WaXk6jFMfFJq54K4-41" value="+ xuatThongTinSp(): void" style="text;strokeColor=none;fillColor=none;align=left;verticalAlign=middle;spacingLeft=4;spacingRight=4;overflow=hidden;points=[[0,0.5],[1,0.5]];portConstraint=eastwest;rotatable=0;whiteSpace=wrap;html=1;" parent="_Qm1WaXk6jFMfFJq54K4-38" vertex="1">
          <mxGeometry y="60" width="150" height="30" as="geometry" />
        </mxCell>
        <mxCell id="dD1Nw-LrX4-UFUcD86zw-5" value="+ xuatThongTinSpCoStt(String soTt): void" style="text;strokeColor=none;fillColor=none;align=left;verticalAlign=middle;spacingLeft=4;spacingRight=4;overflow=hidden;points=[[0,0.5],[1,0.5]];portConstraint=eastwest;rotatable=0;whiteSpace=wrap;html=1;" parent="_Qm1WaXk6jFMfFJq54K4-38" vertex="1">
          <mxGeometry y="90" width="240" height="30" as="geometry" />
        </mxCell>
        <mxCell id="_Qm1WaXk6jFMfFJq54K4-42" value="" style="swimlane;startSize=0;" parent="1" vertex="1">
          <mxGeometry x="880" y="1160" width="240" height="120" as="geometry" />
        </mxCell>
        <mxCell id="_Qm1WaXk6jFMfFJq54K4-43" value="+ nhap(): void" style="text;strokeColor=none;fillColor=none;align=left;verticalAlign=middle;spacingLeft=4;spacingRight=4;overflow=hidden;points=[[0,0.5],[1,0.5]];portConstraint=eastwest;rotatable=0;whiteSpace=wrap;html=1;" parent="_Qm1WaXk6jFMfFJq54K4-42" vertex="1">
          <mxGeometry width="150" height="30" as="geometry" />
        </mxCell>
        <mxCell id="_Qm1WaXk6jFMfFJq54K4-44" value="+ nhapDeSua(): void" style="text;strokeColor=none;fillColor=none;align=left;verticalAlign=middle;spacingLeft=4;spacingRight=4;overflow=hidden;points=[[0,0.5],[1,0.5]];portConstraint=eastwest;rotatable=0;whiteSpace=wrap;html=1;" parent="_Qm1WaXk6jFMfFJq54K4-42" vertex="1">
          <mxGeometry y="30" width="150" height="30" as="geometry" />
        </mxCell>
        <mxCell id="_Qm1WaXk6jFMfFJq54K4-45" value="+ xuatThongTinSp(): void" style="text;strokeColor=none;fillColor=none;align=left;verticalAlign=middle;spacingLeft=4;spacingRight=4;overflow=hidden;points=[[0,0.5],[1,0.5]];portConstraint=eastwest;rotatable=0;whiteSpace=wrap;html=1;" parent="_Qm1WaXk6jFMfFJq54K4-42" vertex="1">
          <mxGeometry y="60" width="150" height="30" as="geometry" />
        </mxCell>
        <mxCell id="dD1Nw-LrX4-UFUcD86zw-6" value="+ xuatThongTinSpCoStt(String soTt): void" style="text;strokeColor=none;fillColor=none;align=left;verticalAlign=middle;spacingLeft=4;spacingRight=4;overflow=hidden;points=[[0,0.5],[1,0.5]];portConstraint=eastwest;rotatable=0;whiteSpace=wrap;html=1;" parent="_Qm1WaXk6jFMfFJq54K4-42" vertex="1">
          <mxGeometry y="90" width="240" height="30" as="geometry" />
        </mxCell>
        <mxCell id="_Qm1WaXk6jFMfFJq54K4-46" value="DanhSachTaiKhoan" style="swimlane;fontStyle=0;childLayout=stackLayout;horizontal=1;startSize=30;horizontalStack=0;resizeParent=1;resizeParentMax=0;resizeLast=0;collapsible=1;marginBottom=0;whiteSpace=wrap;html=1;" parent="1" vertex="1">
          <mxGeometry x="-290" y="210" width="190" height="330" as="geometry" />
        </mxCell>
        <mxCell id="_Qm1WaXk6jFMfFJq54K4-47" value="+ them(): void" style="text;strokeColor=none;fillColor=none;align=left;verticalAlign=middle;spacingLeft=4;spacingRight=4;overflow=hidden;points=[[0,0.5],[1,0.5]];portConstraint=eastwest;rotatable=0;whiteSpace=wrap;html=1;" parent="_Qm1WaXk6jFMfFJq54K4-46" vertex="1">
          <mxGeometry y="30" width="190" height="30" as="geometry" />
        </mxCell>
        <mxCell id="_Qm1WaXk6jFMfFJq54K4-48" value="+ sua(): void" style="text;strokeColor=none;fillColor=none;align=left;verticalAlign=middle;spacingLeft=4;spacingRight=4;overflow=hidden;points=[[0,0.5],[1,0.5]];portConstraint=eastwest;rotatable=0;whiteSpace=wrap;html=1;" parent="_Qm1WaXk6jFMfFJq54K4-46" vertex="1">
          <mxGeometry y="60" width="190" height="30" as="geometry" />
        </mxCell>
        <mxCell id="_Qm1WaXk6jFMfFJq54K4-49" value="+ xoa(): void" style="text;strokeColor=none;fillColor=none;align=left;verticalAlign=middle;spacingLeft=4;spacingRight=4;overflow=hidden;points=[[0,0.5],[1,0.5]];portConstraint=eastwest;rotatable=0;whiteSpace=wrap;html=1;" parent="_Qm1WaXk6jFMfFJq54K4-46" vertex="1">
          <mxGeometry y="90" width="190" height="30" as="geometry" />
        </mxCell>
        <mxCell id="_Qm1WaXk6jFMfFJq54K4-50" value="+ xuat(): void" style="text;strokeColor=none;fillColor=none;align=left;verticalAlign=middle;spacingLeft=4;spacingRight=4;overflow=hidden;points=[[0,0.5],[1,0.5]];portConstraint=eastwest;rotatable=0;whiteSpace=wrap;html=1;" parent="_Qm1WaXk6jFMfFJq54K4-46" vertex="1">
          <mxGeometry y="120" width="190" height="30" as="geometry" />
        </mxCell>
        <mxCell id="_Qm1WaXk6jFMfFJq54K4-51" value="+ dangKyKh(): void" style="text;strokeColor=none;fillColor=none;align=left;verticalAlign=middle;spacingLeft=4;spacingRight=4;overflow=hidden;points=[[0,0.5],[1,0.5]];portConstraint=eastwest;rotatable=0;whiteSpace=wrap;html=1;" parent="_Qm1WaXk6jFMfFJq54K4-46" vertex="1">
          <mxGeometry y="150" width="190" height="30" as="geometry" />
        </mxCell>
        <mxCell id="_Qm1WaXk6jFMfFJq54K4-62" value="+ dangNhap(): TaiKhoan" style="text;strokeColor=none;fillColor=none;align=left;verticalAlign=middle;spacingLeft=4;spacingRight=4;overflow=hidden;points=[[0,0.5],[1,0.5]];portConstraint=eastwest;rotatable=0;whiteSpace=wrap;html=1;" parent="_Qm1WaXk6jFMfFJq54K4-46" vertex="1">
          <mxGeometry y="180" width="190" height="30" as="geometry" />
        </mxCell>
        <mxCell id="_Qm1WaXk6jFMfFJq54K4-63" value="+ xuatDanhSachTkQlFirst(): void" style="text;strokeColor=none;fillColor=none;align=left;verticalAlign=middle;spacingLeft=4;spacingRight=4;overflow=hidden;points=[[0,0.5],[1,0.5]];portConstraint=eastwest;rotatable=0;whiteSpace=wrap;html=1;" parent="_Qm1WaXk6jFMfFJq54K4-46" vertex="1">
          <mxGeometry y="210" width="190" height="30" as="geometry" />
        </mxCell>
        <mxCell id="_Qm1WaXk6jFMfFJq54K4-64" value="+ xuatDanhSachTkKhFirst(): void" style="text;strokeColor=none;fillColor=none;align=left;verticalAlign=middle;spacingLeft=4;spacingRight=4;overflow=hidden;points=[[0,0.5],[1,0.5]];portConstraint=eastwest;rotatable=0;whiteSpace=wrap;html=1;" parent="_Qm1WaXk6jFMfFJq54K4-46" vertex="1">
          <mxGeometry y="240" width="190" height="30" as="geometry" />
        </mxCell>
        <mxCell id="_Qm1WaXk6jFMfFJq54K4-65" value="+ timKiemTheoMaTk(): void" style="text;strokeColor=none;fillColor=none;align=left;verticalAlign=middle;spacingLeft=4;spacingRight=4;overflow=hidden;points=[[0,0.5],[1,0.5]];portConstraint=eastwest;rotatable=0;whiteSpace=wrap;html=1;" parent="_Qm1WaXk6jFMfFJq54K4-46" vertex="1">
          <mxGeometry y="270" width="190" height="30" as="geometry" />
        </mxCell>
        <mxCell id="_Qm1WaXk6jFMfFJq54K4-66" value="+ timKiemTongQuatTk(): void" style="text;strokeColor=none;fillColor=none;align=left;verticalAlign=middle;spacingLeft=4;spacingRight=4;overflow=hidden;points=[[0,0.5],[1,0.5]];portConstraint=eastwest;rotatable=0;whiteSpace=wrap;html=1;" parent="_Qm1WaXk6jFMfFJq54K4-46" vertex="1">
          <mxGeometry y="300" width="190" height="30" as="geometry" />
        </mxCell>
        <mxCell id="_Qm1WaXk6jFMfFJq54K4-59" value="1" style="endArrow=open;html=1;endSize=12;startArrow=diamondThin;startSize=14;startFill=0;edgeStyle=orthogonalEdgeStyle;align=left;verticalAlign=bottom;rounded=0;entryX=-0.002;entryY=0.106;entryDx=0;entryDy=0;entryPerimeter=0;exitX=1.002;exitY=0.043;exitDx=0;exitDy=0;exitPerimeter=0;" parent="1" source="_Qm1WaXk6jFMfFJq54K4-46" target="GnyuzEe8Hdg3utKh5gc8-3" edge="1">
          <mxGeometry x="-1" y="3" relative="1" as="geometry">
            <mxPoint x="-100" y="219.47" as="sourcePoint" />
            <mxPoint x="60" y="219.47" as="targetPoint" />
          </mxGeometry>
        </mxCell>
        <mxCell id="_Qm1WaXk6jFMfFJq54K4-61" value="" style="endArrow=block;dashed=1;endFill=0;endSize=12;html=1;rounded=0;exitX=-0.003;exitY=0.065;exitDx=0;exitDy=0;exitPerimeter=0;entryX=1.012;entryY=0.099;entryDx=0;entryDy=0;entryPerimeter=0;" parent="1" source="_Qm1WaXk6jFMfFJq54K4-46" target="_Qm1WaXk6jFMfFJq54K4-67" edge="1">
          <mxGeometry width="160" relative="1" as="geometry">
            <mxPoint x="-310" y="170" as="sourcePoint" />
            <mxPoint x="-420" y="30" as="targetPoint" />
          </mxGeometry>
        </mxCell>
        <mxCell id="_Qm1WaXk6jFMfFJq54K4-67" value="IDanhSach" style="swimlane;fontStyle=0;childLayout=stackLayout;horizontal=1;startSize=30;horizontalStack=0;resizeParent=1;resizeParentMax=0;resizeLast=0;collapsible=1;marginBottom=0;whiteSpace=wrap;html=1;" parent="1" vertex="1">
          <mxGeometry x="-760" y="220" width="190" height="150" as="geometry" />
        </mxCell>
        <mxCell id="_Qm1WaXk6jFMfFJq54K4-68" value="+ them(): void" style="text;strokeColor=none;fillColor=none;align=left;verticalAlign=middle;spacingLeft=4;spacingRight=4;overflow=hidden;points=[[0,0.5],[1,0.5]];portConstraint=eastwest;rotatable=0;whiteSpace=wrap;html=1;fontStyle=2" parent="_Qm1WaXk6jFMfFJq54K4-67" vertex="1">
          <mxGeometry y="30" width="190" height="30" as="geometry" />
        </mxCell>
        <mxCell id="_Qm1WaXk6jFMfFJq54K4-69" value="+ sua(): void" style="text;strokeColor=none;fillColor=none;align=left;verticalAlign=middle;spacingLeft=4;spacingRight=4;overflow=hidden;points=[[0,0.5],[1,0.5]];portConstraint=eastwest;rotatable=0;whiteSpace=wrap;html=1;fontStyle=2" parent="_Qm1WaXk6jFMfFJq54K4-67" vertex="1">
          <mxGeometry y="60" width="190" height="30" as="geometry" />
        </mxCell>
        <mxCell id="_Qm1WaXk6jFMfFJq54K4-70" value="+ xoa(): void" style="text;strokeColor=none;fillColor=none;align=left;verticalAlign=middle;spacingLeft=4;spacingRight=4;overflow=hidden;points=[[0,0.5],[1,0.5]];portConstraint=eastwest;rotatable=0;whiteSpace=wrap;html=1;fontStyle=2" parent="_Qm1WaXk6jFMfFJq54K4-67" vertex="1">
          <mxGeometry y="90" width="190" height="30" as="geometry" />
        </mxCell>
        <mxCell id="_Qm1WaXk6jFMfFJq54K4-71" value="+ xuat(): void" style="text;strokeColor=none;fillColor=none;align=left;verticalAlign=middle;spacingLeft=4;spacingRight=4;overflow=hidden;points=[[0,0.5],[1,0.5]];portConstraint=eastwest;rotatable=0;whiteSpace=wrap;html=1;fontStyle=2" parent="_Qm1WaXk6jFMfFJq54K4-67" vertex="1">
          <mxGeometry y="120" width="190" height="30" as="geometry" />
        </mxCell>
        <mxCell id="_Qm1WaXk6jFMfFJq54K4-78" value="DanhSachSanPham" style="swimlane;fontStyle=0;childLayout=stackLayout;horizontal=1;startSize=30;horizontalStack=0;resizeParent=1;resizeParentMax=0;resizeLast=0;collapsible=1;marginBottom=0;whiteSpace=wrap;html=1;" parent="1" vertex="1">
          <mxGeometry x="-290" y="790" width="360" height="420" as="geometry" />
        </mxCell>
        <mxCell id="_Qm1WaXk6jFMfFJq54K4-79" value="+ them(): void" style="text;strokeColor=none;fillColor=none;align=left;verticalAlign=middle;spacingLeft=4;spacingRight=4;overflow=hidden;points=[[0,0.5],[1,0.5]];portConstraint=eastwest;rotatable=0;whiteSpace=wrap;html=1;" parent="_Qm1WaXk6jFMfFJq54K4-78" vertex="1">
          <mxGeometry y="30" width="360" height="30" as="geometry" />
        </mxCell>
        <mxCell id="_Qm1WaXk6jFMfFJq54K4-80" value="+ sua(): void" style="text;strokeColor=none;fillColor=none;align=left;verticalAlign=middle;spacingLeft=4;spacingRight=4;overflow=hidden;points=[[0,0.5],[1,0.5]];portConstraint=eastwest;rotatable=0;whiteSpace=wrap;html=1;" parent="_Qm1WaXk6jFMfFJq54K4-78" vertex="1">
          <mxGeometry y="60" width="360" height="30" as="geometry" />
        </mxCell>
        <mxCell id="_Qm1WaXk6jFMfFJq54K4-81" value="+ xoa(): void" style="text;strokeColor=none;fillColor=none;align=left;verticalAlign=middle;spacingLeft=4;spacingRight=4;overflow=hidden;points=[[0,0.5],[1,0.5]];portConstraint=eastwest;rotatable=0;whiteSpace=wrap;html=1;" parent="_Qm1WaXk6jFMfFJq54K4-78" vertex="1">
          <mxGeometry y="90" width="360" height="30" as="geometry" />
        </mxCell>
        <mxCell id="_Qm1WaXk6jFMfFJq54K4-82" value="+ xuat(): void" style="text;strokeColor=none;fillColor=none;align=left;verticalAlign=middle;spacingLeft=4;spacingRight=4;overflow=hidden;points=[[0,0.5],[1,0.5]];portConstraint=eastwest;rotatable=0;whiteSpace=wrap;html=1;" parent="_Qm1WaXk6jFMfFJq54K4-78" vertex="1">
          <mxGeometry y="120" width="360" height="30" as="geometry" />
        </mxCell>
        <mxCell id="_Qm1WaXk6jFMfFJq54K4-83" value="+ xuatTheoGiaThapDenCao(): void" style="text;strokeColor=none;fillColor=none;align=left;verticalAlign=middle;spacingLeft=4;spacingRight=4;overflow=hidden;points=[[0,0.5],[1,0.5]];portConstraint=eastwest;rotatable=0;whiteSpace=wrap;html=1;" parent="_Qm1WaXk6jFMfFJq54K4-78" vertex="1">
          <mxGeometry y="150" width="360" height="30" as="geometry" />
        </mxCell>
        <mxCell id="_Qm1WaXk6jFMfFJq54K4-92" value="+ xuatTheoGiaCaoDenThap(): void" style="text;strokeColor=none;fillColor=none;align=left;verticalAlign=middle;spacingLeft=4;spacingRight=4;overflow=hidden;points=[[0,0.5],[1,0.5]];portConstraint=eastwest;rotatable=0;whiteSpace=wrap;html=1;" parent="_Qm1WaXk6jFMfFJq54K4-78" vertex="1">
          <mxGeometry y="180" width="360" height="30" as="geometry" />
        </mxCell>
        <mxCell id="_Qm1WaXk6jFMfFJq54K4-93" value="+ xuatTheoDmLaptop(): void" style="text;strokeColor=none;fillColor=none;align=left;verticalAlign=middle;spacingLeft=4;spacingRight=4;overflow=hidden;points=[[0,0.5],[1,0.5]];portConstraint=eastwest;rotatable=0;whiteSpace=wrap;html=1;" parent="_Qm1WaXk6jFMfFJq54K4-78" vertex="1">
          <mxGeometry y="210" width="360" height="30" as="geometry" />
        </mxCell>
        <mxCell id="_Qm1WaXk6jFMfFJq54K4-94" value="+ xuatTheoDmPhuKien(): void" style="text;strokeColor=none;fillColor=none;align=left;verticalAlign=middle;spacingLeft=4;spacingRight=4;overflow=hidden;points=[[0,0.5],[1,0.5]];portConstraint=eastwest;rotatable=0;whiteSpace=wrap;html=1;" parent="_Qm1WaXk6jFMfFJq54K4-78" vertex="1">
          <mxGeometry y="240" width="360" height="30" as="geometry" />
        </mxCell>
        <mxCell id="_Qm1WaXk6jFMfFJq54K4-95" value="+ xuatTheoDmTaiNgheLoa(): void" style="text;strokeColor=none;fillColor=none;align=left;verticalAlign=middle;spacingLeft=4;spacingRight=4;overflow=hidden;points=[[0,0.5],[1,0.5]];portConstraint=eastwest;rotatable=0;whiteSpace=wrap;html=1;" parent="_Qm1WaXk6jFMfFJq54K4-78" vertex="1">
          <mxGeometry y="270" width="360" height="30" as="geometry" />
        </mxCell>
        <mxCell id="_Qm1WaXk6jFMfFJq54K4-96" value="+ timKiemTheoMaSp(): void" style="text;strokeColor=none;fillColor=none;align=left;verticalAlign=middle;spacingLeft=4;spacingRight=4;overflow=hidden;points=[[0,0.5],[1,0.5]];portConstraint=eastwest;rotatable=0;whiteSpace=wrap;html=1;" parent="_Qm1WaXk6jFMfFJq54K4-78" vertex="1">
          <mxGeometry y="300" width="360" height="30" as="geometry" />
        </mxCell>
        <mxCell id="_Qm1WaXk6jFMfFJq54K4-97" value="+ timKiemTongQuatSp(): void" style="text;strokeColor=none;fillColor=none;align=left;verticalAlign=middle;spacingLeft=4;spacingRight=4;overflow=hidden;points=[[0,0.5],[1,0.5]];portConstraint=eastwest;rotatable=0;whiteSpace=wrap;html=1;" parent="_Qm1WaXk6jFMfFJq54K4-78" vertex="1">
          <mxGeometry y="330" width="360" height="30" as="geometry" />
        </mxCell>
        <mxCell id="fk1pDv3KYU2aN4GfuLEw-1" value="+ timKiemTheoMaSpBool(maSp: String): boolean" style="text;strokeColor=none;fillColor=none;align=left;verticalAlign=middle;spacingLeft=4;spacingRight=4;overflow=hidden;points=[[0,0.5],[1,0.5]];portConstraint=eastwest;rotatable=0;whiteSpace=wrap;html=1;" parent="_Qm1WaXk6jFMfFJq54K4-78" vertex="1">
          <mxGeometry y="360" width="360" height="30" as="geometry" />
        </mxCell>
        <mxCell id="dD1Nw-LrX4-UFUcD86zw-7" value="+ timKiemThemSanPhamVaoGioHang(maSp: String): SanPham" style="text;strokeColor=none;fillColor=none;align=left;verticalAlign=middle;spacingLeft=4;spacingRight=4;overflow=hidden;points=[[0,0.5],[1,0.5]];portConstraint=eastwest;rotatable=0;whiteSpace=wrap;html=1;" parent="_Qm1WaXk6jFMfFJq54K4-78" vertex="1">
          <mxGeometry y="390" width="360" height="30" as="geometry" />
        </mxCell>
        <mxCell id="_Qm1WaXk6jFMfFJq54K4-91" value="1" style="endArrow=open;html=1;endSize=12;startArrow=diamondThin;startSize=14;startFill=0;edgeStyle=orthogonalEdgeStyle;align=left;verticalAlign=bottom;rounded=0;entryX=-0.007;entryY=0.056;entryDx=0;entryDy=0;entryPerimeter=0;exitX=1.007;exitY=0.034;exitDx=0;exitDy=0;exitPerimeter=0;" parent="1" source="_Qm1WaXk6jFMfFJq54K4-78" target="qhtXlrBzNRr6gG4w9JeX-1" edge="1">
          <mxGeometry x="-1" y="3" relative="1" as="geometry">
            <mxPoint x="-90" y="806" as="sourcePoint" />
            <mxPoint x="160" y="820" as="targetPoint" />
          </mxGeometry>
        </mxCell>
        <mxCell id="_Qm1WaXk6jFMfFJq54K4-98" value="" style="endArrow=block;dashed=1;endFill=0;endSize=12;html=1;rounded=0;exitX=-0.006;exitY=0.042;exitDx=0;exitDy=0;exitPerimeter=0;entryX=1.004;entryY=0.085;entryDx=0;entryDy=0;entryPerimeter=0;" parent="1" source="_Qm1WaXk6jFMfFJq54K4-78" target="_Qm1WaXk6jFMfFJq54K4-67" edge="1">
          <mxGeometry width="160" relative="1" as="geometry">
            <mxPoint x="-543" y="920" as="sourcePoint" />
            <mxPoint x="-820" y="924" as="targetPoint" />
            <Array as="points">
              <mxPoint x="-440" y="320" />
            </Array>
          </mxGeometry>
        </mxCell>
        <mxCell id="Cb_2HImlyaD0O_-otwq--1" value="HoaDon" style="swimlane;fontStyle=0;childLayout=stackLayout;horizontal=1;startSize=30;horizontalStack=0;resizeParent=1;resizeParentMax=0;resizeLast=0;collapsible=1;marginBottom=0;whiteSpace=wrap;html=1;" parent="1" vertex="1">
          <mxGeometry x="250" y="1620" width="270" height="240" as="geometry" />
        </mxCell>
        <mxCell id="Cb_2HImlyaD0O_-otwq--2" value="- maHd: String" style="text;strokeColor=none;fillColor=none;align=left;verticalAlign=middle;spacingLeft=4;spacingRight=4;overflow=hidden;points=[[0,0.5],[1,0.5]];portConstraint=eastwest;rotatable=0;whiteSpace=wrap;html=1;" parent="Cb_2HImlyaD0O_-otwq--1" vertex="1">
          <mxGeometry y="30" width="270" height="30" as="geometry" />
        </mxCell>
        <mxCell id="Cb_2HImlyaD0O_-otwq--30" value="- maKh: String" style="text;strokeColor=none;fillColor=none;align=left;verticalAlign=middle;spacingLeft=4;spacingRight=4;overflow=hidden;points=[[0,0.5],[1,0.5]];portConstraint=eastwest;rotatable=0;whiteSpace=wrap;html=1;" parent="Cb_2HImlyaD0O_-otwq--1" vertex="1">
          <mxGeometry y="60" width="270" height="30" as="geometry" />
        </mxCell>
        <mxCell id="Cb_2HImlyaD0O_-otwq--25" value="- maKhuyenMai: String" style="text;strokeColor=none;fillColor=none;align=left;verticalAlign=middle;spacingLeft=4;spacingRight=4;overflow=hidden;points=[[0,0.5],[1,0.5]];portConstraint=eastwest;rotatable=0;whiteSpace=wrap;html=1;" parent="Cb_2HImlyaD0O_-otwq--1" vertex="1">
          <mxGeometry y="90" width="270" height="30" as="geometry" />
        </mxCell>
        <mxCell id="Cb_2HImlyaD0O_-otwq--26" value="- tongTien: String" style="text;strokeColor=none;fillColor=none;align=left;verticalAlign=middle;spacingLeft=4;spacingRight=4;overflow=hidden;points=[[0,0.5],[1,0.5]];portConstraint=eastwest;rotatable=0;whiteSpace=wrap;html=1;" parent="Cb_2HImlyaD0O_-otwq--1" vertex="1">
          <mxGeometry y="120" width="270" height="30" as="geometry" />
        </mxCell>
        <mxCell id="Cb_2HImlyaD0O_-otwq--27" value="- phuongThucThanhToan:&amp;nbsp; String" style="text;strokeColor=none;fillColor=none;align=left;verticalAlign=middle;spacingLeft=4;spacingRight=4;overflow=hidden;points=[[0,0.5],[1,0.5]];portConstraint=eastwest;rotatable=0;whiteSpace=wrap;html=1;" parent="Cb_2HImlyaD0O_-otwq--1" vertex="1">
          <mxGeometry y="150" width="270" height="30" as="geometry" />
        </mxCell>
        <mxCell id="Cb_2HImlyaD0O_-otwq--31" value="- ngayRaHd: String" style="text;strokeColor=none;fillColor=none;align=left;verticalAlign=middle;spacingLeft=4;spacingRight=4;overflow=hidden;points=[[0,0.5],[1,0.5]];portConstraint=eastwest;rotatable=0;whiteSpace=wrap;html=1;" parent="Cb_2HImlyaD0O_-otwq--1" vertex="1">
          <mxGeometry y="180" width="270" height="30" as="geometry" />
        </mxCell>
        <mxCell id="Cb_2HImlyaD0O_-otwq--40" value="- trangThai: String" style="text;strokeColor=none;fillColor=none;align=left;verticalAlign=middle;spacingLeft=4;spacingRight=4;overflow=hidden;points=[[0,0.5],[1,0.5]];portConstraint=eastwest;rotatable=0;whiteSpace=wrap;html=1;" parent="Cb_2HImlyaD0O_-otwq--1" vertex="1">
          <mxGeometry y="210" width="270" height="30" as="geometry" />
        </mxCell>
        <mxCell id="Cb_2HImlyaD0O_-otwq--10" value="" style="swimlane;startSize=0;" parent="1" vertex="1">
          <mxGeometry x="250" y="1860" width="270" height="180" as="geometry" />
        </mxCell>
        <mxCell id="Cb_2HImlyaD0O_-otwq--12" value="+ setRandomId(): void" style="text;strokeColor=none;fillColor=none;align=left;verticalAlign=middle;spacingLeft=4;spacingRight=4;overflow=hidden;points=[[0,0.5],[1,0.5]];portConstraint=eastwest;rotatable=0;whiteSpace=wrap;html=1;" parent="Cb_2HImlyaD0O_-otwq--10" vertex="1">
          <mxGeometry width="150" height="30" as="geometry" />
        </mxCell>
        <mxCell id="Cb_2HImlyaD0O_-otwq--13" value="+ checkNgayTaoHd(chuoiNgay: String): boolean" style="text;strokeColor=none;fillColor=none;align=left;verticalAlign=middle;spacingLeft=4;spacingRight=4;overflow=hidden;points=[[0,0.5],[1,0.5]];portConstraint=eastwest;rotatable=0;whiteSpace=wrap;html=1;" parent="Cb_2HImlyaD0O_-otwq--10" vertex="1">
          <mxGeometry y="30" width="270" height="30" as="geometry" />
        </mxCell>
        <mxCell id="Cb_2HImlyaD0O_-otwq--14" value="+ checkMaKm(string: String): boolean" style="text;strokeColor=none;fillColor=none;align=left;verticalAlign=middle;spacingLeft=4;spacingRight=4;overflow=hidden;points=[[0,0.5],[1,0.5]];portConstraint=eastwest;rotatable=0;whiteSpace=wrap;html=1;" parent="Cb_2HImlyaD0O_-otwq--10" vertex="1">
          <mxGeometry y="60" width="240" height="30" as="geometry" />
        </mxCell>
        <mxCell id="Cb_2HImlyaD0O_-otwq--15" value="+ nhap(maKh: String, tongTien: String): void" style="text;strokeColor=none;fillColor=none;align=left;verticalAlign=middle;spacingLeft=4;spacingRight=4;overflow=hidden;points=[[0,0.5],[1,0.5]];portConstraint=eastwest;rotatable=0;whiteSpace=wrap;html=1;" parent="Cb_2HImlyaD0O_-otwq--10" vertex="1">
          <mxGeometry y="90" width="270" height="30" as="geometry" />
        </mxCell>
        <mxCell id="dD1Nw-LrX4-UFUcD86zw-8" value="+ xuatThongTinHd(): void" style="text;strokeColor=none;fillColor=none;align=left;verticalAlign=middle;spacingLeft=4;spacingRight=4;overflow=hidden;points=[[0,0.5],[1,0.5]];portConstraint=eastwest;rotatable=0;whiteSpace=wrap;html=1;" parent="Cb_2HImlyaD0O_-otwq--10" vertex="1">
          <mxGeometry y="120" width="150" height="30" as="geometry" />
        </mxCell>
        <mxCell id="Cb_2HImlyaD0O_-otwq--16" value="+ xuatHeaderHd(): void" style="text;strokeColor=none;fillColor=none;align=left;verticalAlign=middle;spacingLeft=4;spacingRight=4;overflow=hidden;points=[[0,0.5],[1,0.5]];portConstraint=eastwest;rotatable=0;whiteSpace=wrap;html=1;fontStyle=4" parent="Cb_2HImlyaD0O_-otwq--10" vertex="1">
          <mxGeometry y="150" width="150" height="30" as="geometry" />
        </mxCell>
        <mxCell id="dD1Nw-LrX4-UFUcD86zw-9" value="DanhSachHoaDon" style="swimlane;fontStyle=0;childLayout=stackLayout;horizontal=1;startSize=30;horizontalStack=0;resizeParent=1;resizeParentMax=0;resizeLast=0;collapsible=1;marginBottom=0;whiteSpace=wrap;html=1;" parent="1" vertex="1">
          <mxGeometry x="-290" y="1620" width="290" height="210" as="geometry" />
        </mxCell>
        <mxCell id="dD1Nw-LrX4-UFUcD86zw-10" value="+ them(): void" style="text;strokeColor=none;fillColor=none;align=left;verticalAlign=middle;spacingLeft=4;spacingRight=4;overflow=hidden;points=[[0,0.5],[1,0.5]];portConstraint=eastwest;rotatable=0;whiteSpace=wrap;html=1;" parent="dD1Nw-LrX4-UFUcD86zw-9" vertex="1">
          <mxGeometry y="30" width="290" height="30" as="geometry" />
        </mxCell>
        <mxCell id="dD1Nw-LrX4-UFUcD86zw-11" value="+ sua(): void" style="text;strokeColor=none;fillColor=none;align=left;verticalAlign=middle;spacingLeft=4;spacingRight=4;overflow=hidden;points=[[0,0.5],[1,0.5]];portConstraint=eastwest;rotatable=0;whiteSpace=wrap;html=1;" parent="dD1Nw-LrX4-UFUcD86zw-9" vertex="1">
          <mxGeometry y="60" width="290" height="30" as="geometry" />
        </mxCell>
        <mxCell id="dD1Nw-LrX4-UFUcD86zw-12" value="+ xoa(): void" style="text;strokeColor=none;fillColor=none;align=left;verticalAlign=middle;spacingLeft=4;spacingRight=4;overflow=hidden;points=[[0,0.5],[1,0.5]];portConstraint=eastwest;rotatable=0;whiteSpace=wrap;html=1;" parent="dD1Nw-LrX4-UFUcD86zw-9" vertex="1">
          <mxGeometry y="90" width="290" height="30" as="geometry" />
        </mxCell>
        <mxCell id="dD1Nw-LrX4-UFUcD86zw-13" value="+ xuat(): void" style="text;strokeColor=none;fillColor=none;align=left;verticalAlign=middle;spacingLeft=4;spacingRight=4;overflow=hidden;points=[[0,0.5],[1,0.5]];portConstraint=eastwest;rotatable=0;whiteSpace=wrap;html=1;" parent="dD1Nw-LrX4-UFUcD86zw-9" vertex="1">
          <mxGeometry y="120" width="290" height="30" as="geometry" />
        </mxCell>
        <mxCell id="dD1Nw-LrX4-UFUcD86zw-14" value="+ themHd(maKh: String, tongTien: String): String" style="text;strokeColor=none;fillColor=none;align=left;verticalAlign=middle;spacingLeft=4;spacingRight=4;overflow=hidden;points=[[0,0.5],[1,0.5]];portConstraint=eastwest;rotatable=0;whiteSpace=wrap;html=1;" parent="dD1Nw-LrX4-UFUcD86zw-9" vertex="1">
          <mxGeometry y="150" width="290" height="30" as="geometry" />
        </mxCell>
        <mxCell id="dD1Nw-LrX4-UFUcD86zw-15" value="+ xuatTheoGiaCaoDenThap(maHd: String): void" style="text;strokeColor=none;fillColor=none;align=left;verticalAlign=middle;spacingLeft=4;spacingRight=4;overflow=hidden;points=[[0,0.5],[1,0.5]];portConstraint=eastwest;rotatable=0;whiteSpace=wrap;html=1;" parent="dD1Nw-LrX4-UFUcD86zw-9" vertex="1">
          <mxGeometry y="180" width="290" height="30" as="geometry" />
        </mxCell>
        <mxCell id="dD1Nw-LrX4-UFUcD86zw-24" value="1" style="endArrow=open;html=1;endSize=12;startArrow=diamondThin;startSize=14;startFill=0;edgeStyle=orthogonalEdgeStyle;align=left;verticalAlign=bottom;rounded=0;exitX=1.007;exitY=0.034;exitDx=0;exitDy=0;exitPerimeter=0;" parent="1" edge="1">
          <mxGeometry x="-1" y="3" relative="1" as="geometry">
            <mxPoint y="1640" as="sourcePoint" />
            <mxPoint x="250" y="1640" as="targetPoint" />
          </mxGeometry>
        </mxCell>
        <mxCell id="dD1Nw-LrX4-UFUcD86zw-25" value="" style="endArrow=block;dashed=1;endFill=0;endSize=12;html=1;rounded=0;exitX=-0.004;exitY=0.082;exitDx=0;exitDy=0;exitPerimeter=0;" parent="1" source="dD1Nw-LrX4-UFUcD86zw-9" edge="1">
          <mxGeometry width="160" relative="1" as="geometry">
            <mxPoint x="-323" y="986" as="sourcePoint" />
            <mxPoint x="-570" y="230" as="targetPoint" />
            <Array as="points">
              <mxPoint x="-440" y="480" />
            </Array>
          </mxGeometry>
        </mxCell>
        <mxCell id="dD1Nw-LrX4-UFUcD86zw-26" value="MuaHangAction" style="swimlane;fontStyle=0;childLayout=stackLayout;horizontal=1;startSize=30;horizontalStack=0;resizeParent=1;resizeParentMax=0;resizeLast=0;collapsible=1;marginBottom=0;whiteSpace=wrap;html=1;" parent="1" vertex="1">
          <mxGeometry x="770" y="1610" width="290" height="90" as="geometry" />
        </mxCell>
        <mxCell id="dD1Nw-LrX4-UFUcD86zw-27" value="- dsSanPhamKhongHopLe: SanPham[]" style="text;strokeColor=none;fillColor=none;align=left;verticalAlign=middle;spacingLeft=4;spacingRight=4;overflow=hidden;points=[[0,0.5],[1,0.5]];portConstraint=eastwest;rotatable=0;whiteSpace=wrap;html=1;" parent="dD1Nw-LrX4-UFUcD86zw-26" vertex="1">
          <mxGeometry y="30" width="290" height="30" as="geometry" />
        </mxCell>
        <mxCell id="dD1Nw-LrX4-UFUcD86zw-28" value="- dsSanPhamKhoConLai: SanPham[]" style="text;strokeColor=none;fillColor=none;align=left;verticalAlign=middle;spacingLeft=4;spacingRight=4;overflow=hidden;points=[[0,0.5],[1,0.5]];portConstraint=eastwest;rotatable=0;whiteSpace=wrap;html=1;" parent="dD1Nw-LrX4-UFUcD86zw-26" vertex="1">
          <mxGeometry y="60" width="290" height="30" as="geometry" />
        </mxCell>
      </root>
    </mxGraphModel>
  </diagram>
</mxfile>
